<?xml version="1.0" standalone="no"?>
<!DOCTYPE svg PUBLIC "-//W3C//DTD SVG 20010904//EN"
 "http://www.w3.org/TR/2001/REC-SVG-20010904/DTD/svg10.dtd">
<svg version="1.0" xmlns="http://www.w3.org/2000/svg"
 width="512.000000pt" height="512.000000pt" viewBox="0 0 512.000000 512.000000"
 preserveAspectRatio="xMidYMid meet">

<g transform="translate(0.000000,512.000000) scale(0.100000,-0.100000)"
fill="#000000" stroke="none">
<path d="M946 5109 c-62 -15 -153 -68 -197 -116 -22 -24 -55 -74 -72 -111
l-32 -67 0 -2256 0 -2255 37 -76 c45 -91 103 -147 196 -191 l67 -32 1615 0
1615 0 67 32 c93 44 151 100 196 191 l37 76 0 1875 0 1876 -28 60 c-24 52 -83
115 -465 498 -385 386 -445 442 -502 470 l-65 32 -1215 2 c-708 0 -1231 -3
-1254 -8z m2336 -517 l3 -368 37 -76 c45 -91 103 -147 196 -191 l67 -32 367
-3 368 -3 0 -1776 c0 -1365 -3 -1785 -12 -1817 -16 -55 -99 -138 -154 -154
-60 -17 -3128 -17 -3188 0 -55 16 -138 99 -154 154 -18 60 -18 4408 0 4468 15
51 99 137 148 153 25 8 375 11 1177 12 l1142 1 3 -368z m686 -510 c-225 -2
-326 1 -358 10 -58 16 -141 96 -158 154 -8 29 -12 139 -12 360 l0 319 420
-420 420 -420 -312 -3z"/>
</g>
</svg>
