<?xml version="1.0" standalone="no"?>
<!DOCTYPE svg PUBLIC "-//W3C//DTD SVG 20010904//EN"
 "http://www.w3.org/TR/2001/REC-SVG-20010904/DTD/svg10.dtd">
<svg version="1.0" xmlns="http://www.w3.org/2000/svg"
 width="512.000000pt" height="512.000000pt" viewBox="0 0 512.000000 512.000000"
 preserveAspectRatio="xMidYMid meet">

<g transform="translate(0.000000,512.000000) scale(0.100000,-0.100000)"
fill="#000000" stroke="none">
<path d="M2380 5109 c-1036 -74 -1926 -768 -2250 -1757 -139 -427 -162 -909
-64 -1352 158 -707 622 -1325 1263 -1680 567 -314 1257 -398 1888 -230 882
235 1578 931 1813 1813 234 879 -20 1822 -664 2463 -450 448 -1006 699 -1644
743 -167 12 -173 12 -342 0z m530 -244 c380 -59 743 -212 1060 -449 122 -91
355 -324 447 -447 236 -316 388 -677 450 -1069 25 -161 25 -519 0 -680 -62
-392 -214 -753 -450 -1069 -92 -123 -325 -356 -447 -447 -320 -239 -681 -391
-1070 -451 -162 -25 -520 -25 -680 0 -393 62 -755 214 -1069 450 -110 82 -332
298 -414 403 -253 323 -420 706 -484 1114 -25 162 -25 520 0 680 63 396 212
749 451 1070 91 122 324 355 447 447 357 267 721 408 1209 467 79 9 450 -3
550 -19z"/>
<path d="M2742 3830 c-109 -23 -210 -112 -238 -208 -41 -140 20 -266 166 -343
38 -20 60 -24 140 -24 82 0 103 4 152 27 236 111 233 415 -7 524 -58 26 -151
37 -213 24z"/>
<path d="M2400 2969 c-66 -11 -191 -49 -299 -90 l-79 -30 -18 -65 c-9 -35 -15
-67 -11 -70 3 -3 35 4 72 15 131 41 255 19 291 -51 24 -46 20 -158 -10 -277
-14 -53 -54 -197 -90 -320 -81 -275 -96 -347 -96 -453 0 -71 4 -92 29 -144 67
-141 227 -214 439 -201 114 8 134 13 313 78 l136 50 13 57 c7 31 15 62 17 69
3 7 -10 6 -39 -5 -58 -22 -251 -23 -292 -2 -48 24 -71 74 -69 150 3 91 20 164
117 502 75 261 86 309 92 405 6 89 4 119 -10 161 -58 173 -260 261 -506 221z"/>
</g>
</svg>
