<?xml version="1.0" standalone="no"?>
<!DOCTYPE svg PUBLIC "-//W3C//DTD SVG 20010904//EN"
 "http://www.w3.org/TR/2001/REC-SVG-20010904/DTD/svg10.dtd">
<svg version="1.0" xmlns="http://www.w3.org/2000/svg"
 width="512.000000pt" height="512.000000pt" viewBox="0 0 512.000000 512.000000"
 preserveAspectRatio="xMidYMid meet">

<g transform="translate(0.000000,512.000000) scale(0.100000,-0.100000)"
fill="#000000" stroke="none">
<path d="M1693 4750 c-74 -11 -174 -61 -233 -116 -63 -59 -117 -165 -130 -254
-5 -36 -10 -297 -10 -581 l0 -515 -81 -24 c-312 -90 -595 -331 -746 -635 -147
-295 -168 -632 -60 -950 76 -222 236 -440 430 -586 94 -71 265 -157 374 -189
l79 -23 10 -98 c8 -80 17 -111 47 -172 63 -128 186 -217 329 -237 83 -12 2593
-12 2676 0 84 12 180 58 242 116 63 59 117 165 130 254 13 91 13 2774 0 2865
-22 151 -24 153 -508 637 -398 398 -443 440 -502 467 -36 17 -94 35 -130 40
-76 13 -1835 13 -1917 1z m1707 -567 c0 -186 5 -367 10 -403 13 -89 67 -195
130 -254 62 -58 158 -104 242 -116 35 -5 215 -10 401 -10 l337 0 -2 -1338 -3
-1339 -27 -36 c-16 -19 -43 -46 -60 -59 l-33 -23 -1355 0 -1355 0 -33 23 c-58
42 -85 88 -90 153 -4 52 -2 59 14 59 54 0 243 22 299 35 407 95 742 392 886
786 114 312 93 673 -56 969 -167 331 -472 571 -832 655 -54 13 -243 35 -295
35 -17 0 -18 32 -18 524 0 301 4 535 9 549 14 37 72 98 106 113 24 11 200 13
878 14 l847 0 0 -337z m690 -120 l415 -418 -345 -3 c-190 -1 -359 0 -376 3
-17 3 -49 21 -71 40 -74 63 -73 59 -73 459 0 337 1 356 18 347 9 -5 204 -198
432 -428z m-2215 -1018 c176 -52 317 -138 446 -271 121 -127 194 -250 245
-419 26 -84 28 -102 28 -270 0 -210 -14 -277 -90 -434 -60 -127 -115 -200
-221 -301 -128 -121 -260 -195 -433 -242 -74 -20 -107 -23 -255 -22 -198 0
-266 15 -420 88 -121 57 -172 93 -269 185 -98 95 -154 173 -211 294 -65 136
-86 226 -92 387 -6 163 11 271 64 405 52 130 107 217 203 318 96 102 171 158
285 215 164 81 267 103 475 98 132 -3 168 -8 245 -31z"/>
<path d="M2361 3627 c-70 -25 -98 -116 -54 -175 36 -48 74 -53 355 -50 242 3
258 4 285 24 61 45 61 143 0 188 -27 20 -42 21 -290 23 -187 2 -272 -1 -296
-10z"/>
<path d="M3161 2987 c-70 -25 -98 -116 -54 -175 38 -51 62 -53 514 -50 406 3
418 4 446 24 61 45 61 143 0 188 -28 20 -39 21 -450 23 -311 2 -431 -1 -456
-10z"/>
<path d="M3321 2347 c-70 -25 -98 -116 -54 -175 37 -50 68 -53 435 -50 324 3
338 4 365 24 61 45 61 143 0 188 -27 20 -41 21 -370 23 -249 2 -351 -1 -376
-10z"/>
<path d="M3161 1707 c-70 -25 -98 -116 -54 -175 38 -51 62 -53 514 -50 406 3
418 4 446 24 61 45 61 143 0 188 -28 20 -39 21 -450 23 -311 2 -431 -1 -456
-10z"/>
<path d="M1573 2668 c-17 -4 -43 -22 -57 -39 l-26 -31 0 -236 0 -237 -110
-110 c-121 -120 -139 -152 -120 -210 16 -47 53 -75 102 -75 36 0 49 9 176 129
75 70 146 138 157 151 19 21 20 36 20 311 l0 289 -25 25 c-32 32 -76 44 -117
33z"/>
</g>
</svg>
