<?xml version="1.0" standalone="no"?>
<!DOCTYPE svg PUBLIC "-//W3C//DTD SVG 20010904//EN"
 "http://www.w3.org/TR/2001/REC-SVG-20010904/DTD/svg10.dtd">
<svg version="1.0" xmlns="http://www.w3.org/2000/svg"
 width="512.000000pt" height="512.000000pt" viewBox="0 0 512.000000 512.000000"
 preserveAspectRatio="xMidYMid meet">

<g transform="translate(0.000000,512.000000) scale(0.100000,-0.100000)"
fill="#000000" stroke="none">
<path d="M2463 4578 c-64 -35 -2207 -2111 -2228 -2158 -59 -131 30 -286 170
-298 110 -9 54 -57 1147 999 552 533 1006 968 1010 966 4 -1 455 -435 1002
-964 620 -600 1012 -971 1038 -984 58 -30 150 -24 206 14 90 59 121 178 71
272 -17 32 -328 338 -1098 1083 -591 570 -1089 1048 -1108 1062 -51 36 -152
40 -210 8z"/>
<path d="M2463 2978 c-64 -35 -2207 -2111 -2228 -2158 -41 -90 -8 -207 73
-264 56 -39 139 -47 203 -19 33 15 285 252 979 923 514 496 965 932 1002 968
l68 66 107 -105 c780 -761 1900 -1832 1934 -1850 59 -30 150 -24 207 14 90 59
121 178 71 272 -17 32 -328 339 -1098 1083 -591 570 -1090 1048 -1108 1062
-51 36 -152 40 -210 8z"/>
</g>
</svg>
