<?xml version="1.0" standalone="no"?>
<!DOCTYPE svg PUBLIC "-//W3C//DTD SVG 20010904//EN"
 "http://www.w3.org/TR/2001/REC-SVG-20010904/DTD/svg10.dtd">
<svg version="1.0" xmlns="http://www.w3.org/2000/svg"
 width="512.000000pt" height="512.000000pt" viewBox="0 0 512.000000 512.000000"
 preserveAspectRatio="xMidYMid meet">

<g transform="translate(0.000000,512.000000) scale(0.100000,-0.100000)"
fill="#000000" stroke="none">
<path d="M2392 4869 c-1006 -76 -1841 -786 -2081 -1767 -49 -202 -64 -354 -58
-601 6 -285 39 -472 126 -716 178 -497 536 -935 986 -1208 483 -292 1057 -396
1618 -292 955 176 1699 934 1861 1895 23 137 37 377 25 431 -37 166 -236 239
-371 135 -71 -53 -88 -100 -98 -267 -10 -170 -22 -251 -56 -379 -183 -695
-729 -1207 -1444 -1352 -101 -20 -143 -23 -345 -23 -210 1 -241 3 -355 28
-382 81 -704 257 -965 528 -104 108 -165 185 -234 296 -142 229 -229 471 -267
740 -24 170 -15 443 20 609 156 742 717 1295 1466 1446 99 20 145 23 335 23
232 0 292 -7 470 -52 205 -53 427 -156 607 -283 51 -36 146 -118 213 -182
l120 -117 -342 -1 c-208 0 -362 -4 -393 -11 -242 -52 -242 -406 0 -458 70 -15
1150 -15 1220 0 66 14 127 62 159 124 l26 49 0 616 0 616 -26 49 c-88 172
-330 172 -418 0 -25 -48 -26 -56 -29 -277 l-4 -227 -91 77 c-470 397 -1077
597 -1675 551z"/>
</g>
</svg>
