<?xml version="1.0" standalone="no"?>
<!DOCTYPE svg PUBLIC "-//W3C//DTD SVG 20010904//EN"
 "http://www.w3.org/TR/2001/REC-SVG-20010904/DTD/svg10.dtd">
<svg version="1.0" xmlns="http://www.w3.org/2000/svg"
 width="512.000000pt" height="512.000000pt" viewBox="0 0 512.000000 512.000000"
 preserveAspectRatio="xMidYMid meet">

<g transform="translate(0.000000,512.000000) scale(0.100000,-0.100000)"
fill="#000000" stroke="none">
<path d="M2285 4675 c-892 -117 -1619 -787 -1809 -1665 -56 -261 -61 -585 -12
-843 109 -575 446 -1076 941 -1400 279 -182 685 -320 945 -322 89 0 111 3 145
22 53 28 121 102 148 161 21 46 22 61 27 534 l5 488 28 27 27 28 773 5 c838 5
783 2 898 60 104 54 186 149 219 258 59 190 85 523 61 754 -108 998 -892 1787
-1886 1898 -122 13 -387 11 -510 -5z m466 -206 c417 -42 809 -219 1119 -505
400 -370 631 -929 606 -1474 -6 -150 -37 -343 -65 -405 -20 -46 -81 -104 -143
-137 l-43 -23 -765 -5 -765 -5 -57 -28 c-68 -34 -139 -109 -164 -175 -17 -43
-19 -92 -22 -529 l-3 -481 -27 -27 c-26 -26 -30 -27 -92 -21 -261 27 -582 144
-818 299 -1001 656 -1167 2045 -351 2922 401 430 1002 654 1590 594z"/>
<path d="M1845 3831 c-89 -23 -167 -88 -212 -174 -23 -45 -27 -64 -27 -137 0
-73 4 -92 27 -137 34 -66 84 -116 150 -150 45 -23 64 -27 137 -27 73 0 92 4
137 27 66 34 116 84 150 150 23 45 27 64 27 137 0 73 -4 92 -27 137 -56 108
-151 171 -265 178 -37 2 -80 1 -97 -4z m120 -217 c31 -14 65 -64 65 -94 0 -7
-7 -27 -16 -45 -19 -41 -73 -69 -114 -60 -37 8 -77 48 -85 85 -9 40 19 95 58
114 40 20 51 20 92 0z"/>
<path d="M3125 3831 c-89 -23 -167 -88 -212 -174 -23 -45 -27 -64 -27 -137 0
-73 4 -92 27 -137 34 -66 84 -116 150 -150 45 -23 64 -27 137 -27 73 0 92 4
137 27 66 34 116 84 150 150 23 45 27 64 27 137 0 73 -4 92 -27 137 -56 108
-151 171 -265 178 -37 2 -80 1 -97 -4z m120 -217 c31 -14 65 -64 65 -94 0 -7
-7 -27 -16 -45 -19 -41 -73 -69 -114 -60 -37 8 -77 48 -85 85 -9 40 19 95 58
114 40 20 51 20 92 0z"/>
<path d="M1317 2979 c-92 -22 -175 -88 -218 -175 -20 -41 -24 -64 -24 -139 0
-78 4 -97 27 -140 32 -60 87 -114 148 -146 37 -20 60 -24 135 -24 75 0 98 4
139 24 267 132 227 521 -60 596 -64 17 -91 17 -147 4z m144 -238 c50 -50 33
-144 -30 -171 -61 -25 -131 10 -146 73 -26 102 101 173 176 98z"/>
<path d="M3659 2977 c-61 -17 -131 -59 -165 -99 -138 -164 -87 -406 104 -500
68 -33 207 -33 272 1 61 32 116 86 148 146 23 43 27 62 27 140 0 75 -4 98 -24
139 -66 134 -227 211 -362 173z m135 -222 c75 -49 48 -174 -41 -191 -70 -13
-123 33 -123 106 0 33 6 48 29 71 23 23 38 29 71 29 22 0 51 -7 64 -15z"/>
</g>
</svg>
