<?xml version="1.0" standalone="no"?>
<!DOCTYPE svg PUBLIC "-//W3C//DTD SVG 20010904//EN"
 "http://www.w3.org/TR/2001/REC-SVG-20010904/DTD/svg10.dtd">
<svg version="1.0" xmlns="http://www.w3.org/2000/svg"
 width="512.000000pt" height="512.000000pt" viewBox="0 0 512.000000 512.000000"
 preserveAspectRatio="xMidYMid meet">

<g transform="translate(0.000000,512.000000) scale(0.100000,-0.100000)"
fill="#000000" stroke="none">
<path d="M1975 5110 c-142 -14 -276 -53 -410 -119 -136 -68 -222 -130 -329
-237 -107 -107 -169 -193 -237 -329 -70 -142 -105 -269 -118 -428 -31 -392 95
-728 373 -995 231 -222 477 -327 796 -339 365 -15 665 102 920 357 243 243
360 527 360 874 0 340 -126 634 -374 874 -268 259 -607 378 -981 342z m301
-301 c194 -34 370 -132 514 -286 111 -118 181 -243 223 -398 31 -114 30 -363
-2 -480 -87 -320 -351 -584 -666 -665 -104 -27 -268 -36 -375 -21 -394 58
-707 353 -785 740 -22 105 -16 331 10 431 23 88 85 218 139 293 50 71 178 197
250 246 75 52 209 110 299 131 94 21 298 26 393 9z"/>
<path d="M928 2624 c-188 -34 -372 -134 -501 -274 -248 -268 -391 -709 -417
-1284 -13 -309 4 -432 86 -601 52 -109 112 -186 201 -259 133 -111 304 -177
501 -196 143 -13 2553 -13 2682 0 391 41 666 265 755 614 31 124 39 265 26
479 -59 960 -426 1500 -1043 1534 -133 7 -139 5 -357 -134 -91 -59 -206 -124
-254 -145 -287 -125 -548 -139 -822 -47 -128 44 -211 86 -365 185 -215 139
-227 144 -329 143 -47 0 -120 -7 -163 -15z m298 -351 c182 -117 260 -160 371
-203 214 -84 395 -116 597 -107 281 12 520 97 820 291 96 61 160 96 177 96
122 0 303 -72 400 -159 218 -195 355 -602 378 -1128 9 -183 3 -303 -19 -384
-47 -175 -192 -310 -386 -359 -75 -19 -116 -20 -1429 -20 -1313 0 -1354 1
-1429 20 -103 26 -186 72 -255 140 -117 116 -151 226 -151 489 0 535 135 996
356 1217 90 90 183 139 319 169 112 25 121 23 251 -62z"/>
</g>
</svg>
