<?xml version="1.0" standalone="no"?>
<!DOCTYPE svg PUBLIC "-//W3C//DTD SVG 20010904//EN"
 "http://www.w3.org/TR/2001/REC-SVG-20010904/DTD/svg10.dtd">
<svg version="1.0" xmlns="http://www.w3.org/2000/svg"
 width="512.000000pt" height="512.000000pt" viewBox="0 0 512.000000 512.000000"
 preserveAspectRatio="xMidYMid meet">

<g transform="translate(0.000000,512.000000) scale(0.100000,-0.100000)"
fill="#000000" stroke="none">
<path d="M1624 4630 c-227 -35 -414 -200 -480 -425 -27 -94 -23 -230 10 -330
32 -95 99 -199 169 -260 44 -38 156 -102 210 -119 16 -5 17 -58 17 -936 l0
-931 -32 -11 c-230 -80 -389 -301 -390 -543 -2 -333 252 -590 582 -588 223 2
418 122 515 318 65 129 80 264 45 399 -28 110 -73 190 -155 272 -64 65 -154
121 -239 148 -17 6 -18 15 -14 104 4 72 11 109 28 144 25 53 85 113 135 134
19 7 267 43 553 79 316 39 544 73 583 85 196 61 351 232 394 435 8 39 15 110
15 158 0 74 3 89 18 94 9 3 50 22 91 41 186 90 313 297 314 511 0 267 -169
491 -428 567 -92 27 -229 23 -331 -10 -147 -47 -271 -154 -339 -291 -65 -129
-80 -264 -45 -399 28 -110 73 -190 155 -272 64 -65 154 -121 239 -148 17 -6
18 -15 14 -104 -4 -78 -10 -107 -31 -148 -29 -58 -80 -107 -135 -130 -22 -9
-251 -42 -552 -80 -354 -44 -537 -71 -585 -86 -38 -12 -76 -24 -82 -26 -10 -3
-13 123 -13 603 0 568 1 606 18 611 9 3 51 22 92 42 185 88 320 305 320 517 0
128 -60 284 -146 383 -121 138 -342 220 -520 192z m207 -338 c65 -34 113 -94
135 -169 57 -198 -131 -386 -329 -329 -119 35 -197 133 -197 248 0 94 17 136
80 198 62 63 97 78 191 79 55 1 76 -4 120 -27z m1673 -624 c55 -16 148 -109
164 -164 46 -158 -32 -305 -185 -350 -198 -57 -386 131 -329 329 35 119 133
197 248 197 34 0 79 -5 102 -12z m-1679 -2359 c115 -54 176 -190 141 -312 -35
-119 -133 -197 -248 -197 -94 0 -136 17 -198 80 -63 62 -80 104 -80 198 0 190
207 314 385 231z"/>
</g>
</svg>
