<?xml version="1.0" standalone="no"?>
<!DOCTYPE svg PUBLIC "-//W3C//DTD SVG 20010904//EN"
 "http://www.w3.org/TR/2001/REC-SVG-20010904/DTD/svg10.dtd">
<svg version="1.0" xmlns="http://www.w3.org/2000/svg"
 width="512.000000pt" height="512.000000pt" viewBox="0 0 512.000000 512.000000"
 preserveAspectRatio="xMidYMid meet">

<g transform="translate(0.000000,512.000000) scale(0.100000,-0.100000)"
fill="#000000" stroke="none">
<path d="M765 4719 c-196 -25 -379 -120 -526 -275 -98 -105 -159 -211 -206
-361 l-28 -88 0 -1435 0 -1435 28 -88 c47 -150 108 -256 206 -361 108 -113
250 -204 382 -244 136 -42 204 -43 1614 -40 1346 3 1350 3 1426 25 156 44 254
96 366 194 129 112 231 269 273 419 33 121 41 291 38 790 -3 518 -2 510 -71
528 -55 14 -78 2 -180 -97 -158 -153 -141 -81 -148 -616 -5 -388 -8 -467 -22
-507 -51 -148 -178 -273 -326 -318 -61 -19 -100 -20 -1418 -20 -1491 0 -1415
-3 -1526 61 -108 63 -197 175 -234 294 -17 57 -18 127 -18 1420 0 1300 1 1362
19 1415 55 163 191 295 345 335 51 13 232 15 1409 15 942 0 1366 -3 1402 -11
38 -8 58 -8 80 1 37 15 210 192 211 216 3 48 -4 71 -30 95 -35 33 -170 75
-281 89 -105 12 -2683 12 -2785 -1z"/>
<path d="M4477 4519 c-21 -5 -50 -15 -65 -23 -15 -8 -481 -470 -1037 -1025
l-1010 -1011 -420 419 c-243 243 -437 428 -460 440 -49 26 -148 28 -203 5 -46
-19 -435 -403 -463 -456 -29 -57 -34 -116 -14 -184 17 -59 17 -59 718 -760
481 -480 714 -707 741 -719 57 -25 150 -23 206 5 33 16 402 379 1331 1308
1230 1230 1288 1289 1304 1341 20 62 17 128 -10 186 -24 52 -395 426 -450 453
-50 25 -118 34 -168 21z"/>
</g>
</svg>
