<?xml version="1.0" standalone="no"?>
<!DOCTYPE svg PUBLIC "-//W3C//DTD SVG 20010904//EN"
 "http://www.w3.org/TR/2001/REC-SVG-20010904/DTD/svg10.dtd">
<svg version="1.0" xmlns="http://www.w3.org/2000/svg"
 width="512.000000pt" height="512.000000pt" viewBox="0 0 512.000000 512.000000"
 preserveAspectRatio="xMidYMid meet">

<g transform="translate(0.000000,512.000000) scale(0.100000,-0.100000)"
fill="#000000" stroke="none">
<path d="M852 5029 c-87 -10 -236 -59 -312 -101 -173 -97 -315 -257 -387 -433
-72 -177 -68 -89 -68 -1485 0 -1025 3 -1266 14 -1315 88 -389 396 -668 779
-705 128 -12 2336 -12 2465 0 206 20 381 104 532 255 156 156 234 323 255 545
8 79 10 488 8 1305 -4 1186 -4 1190 -25 1267 -51 181 -113 289 -238 413 -93
94 -167 145 -274 190 -174 73 -77 69 -1446 71 -676 1 -1263 -2 -1303 -7z
m2578 -505 c83 -39 155 -111 194 -194 l31 -65 0 -1255 0 -1255 -32 -65 c-41
-83 -110 -152 -193 -193 l-65 -32 -1255 0 -1255 0 -65 31 c-83 40 -154 111
-194 194 l-31 65 0 1255 0 1255 31 65 c48 102 129 173 243 216 29 10 272 12
1281 11 l1245 -2 65 -31z"/>
<path d="M2015 3942 c-53 -25 -88 -60 -117 -113 -22 -42 -23 -54 -26 -311 l-3
-267 -267 -3 -267 -3 -55 -31 c-73 -41 -112 -103 -118 -185 -8 -102 38 -182
132 -232 39 -21 57 -22 308 -25 l267 -4 3 -266 c3 -251 4 -269 24 -307 48 -88
122 -135 214 -135 92 0 167 47 213 135 20 37 22 57 25 307 l4 266 266 4 c250
3 270 5 307 25 88 46 135 121 135 213 0 93 -46 166 -131 212 -42 22 -54 23
-311 26 l-266 3 -4 267 -3 267 -31 55 c-43 77 -104 113 -193 118 -49 2 -76 -2
-106 -16z"/>
<path d="M4737 3236 c-62 -17 -116 -61 -147 -122 l-25 -48 -5 -966 -5 -965
-27 -78 c-75 -220 -245 -390 -465 -465 l-78 -27 -965 -5 -966 -5 -49 -26
c-172 -88 -172 -330 0 -418 l49 -26 881 -3 c554 -2 923 1 996 7 434 39 795
287 984 675 65 132 101 267 115 420 14 158 13 1810 -1 1876 -28 130 -163 211
-292 176z"/>
</g>
</svg>
