<?xml version="1.0" standalone="no"?>
<!DOCTYPE svg PUBLIC "-//W3C//DTD SVG 20010904//EN"
 "http://www.w3.org/TR/2001/REC-SVG-20010904/DTD/svg10.dtd">
<svg version="1.0" xmlns="http://www.w3.org/2000/svg"
 width="512.000000pt" height="512.000000pt" viewBox="0 0 512.000000 512.000000"
 preserveAspectRatio="xMidYMid meet">

<g transform="translate(0.000000,512.000000) scale(0.100000,-0.100000)"
fill="#000000" stroke="none">
<path d="M1882 4750 c-45 -11 -100 -65 -113 -112 -21 -79 36 -170 117 -189 51
-11 1297 -11 1348 1 80 18 134 105 116 187 -11 48 -66 102 -116 113 -48 12
-1305 11 -1352 0z"/>
<path d="M762 4270 c-19 -4 -49 -23 -68 -41 -66 -64 -66 -154 0 -218 40 -39
84 -50 188 -51 l78 0 2 -1522 c4 -1701 -3 -1559 75 -1718 51 -105 179 -233
283 -283 156 -76 84 -72 1240 -72 1158 0 1086 -4 1240 72 104 52 231 179 283
283 77 157 71 16 75 1718 l3 1522 77 0 c106 1 149 12 189 53 85 84 43 230 -73
257 -48 12 -3545 11 -3592 0z m3076 -1832 l-3 -1523 -24 -45 c-32 -61 -96
-126 -156 -158 l-50 -27 -1045 0 -1045 0 -50 27 c-60 32 -124 97 -156 158
l-24 45 -3 1523 -2 1522 1280 0 1280 0 -2 -1522z"/>
<path d="M1962 3230 c-44 -10 -100 -65 -112 -110 -13 -48 -13 -1632 0 -1680
13 -46 68 -99 114 -110 81 -18 168 36 186 116 12 51 12 1617 1 1668 -10 39
-61 102 -90 110 -43 11 -69 13 -99 6z"/>
<path d="M3082 3230 c-44 -10 -100 -65 -112 -110 -13 -48 -13 -1632 0 -1680
13 -46 68 -99 114 -110 81 -18 168 36 186 116 12 51 12 1617 1 1668 -10 39
-61 102 -90 110 -43 11 -69 13 -99 6z"/>
</g>
</svg>
