<?xml version="1.0" standalone="no"?>
<!DOCTYPE svg PUBLIC "-//W3C//DTD SVG 20010904//EN"
 "http://www.w3.org/TR/2001/REC-SVG-20010904/DTD/svg10.dtd">
<svg version="1.0" xmlns="http://www.w3.org/2000/svg"
 width="512.000000pt" height="512.000000pt" viewBox="0 0 512.000000 512.000000"
 preserveAspectRatio="xMidYMid meet">

<g transform="translate(0.000000,512.000000) scale(0.100000,-0.100000)"
fill="#000000" stroke="none">
<path d="M262 5109 c-131 -26 -226 -124 -252 -258 -14 -72 -14 -1310 0 -1382
26 -138 121 -233 260 -259 30 -6 237 -10 481 -10 l429 0 0 -110 0 -110 -131 0
-131 0 -29 -29 c-41 -41 -41 -101 0 -142 l29 -29 362 0 362 0 29 29 c41 41 41
101 0 142 l-29 29 -131 0 -131 0 0 109 0 110 463 3 462 3 61 28 c101 47 163
127 184 236 13 72 14 1310 0 1381 -14 76 -48 136 -102 185 -95 85 -14 80
-1143 81 -550 1 -1019 -2 -1043 -7z m2055 -232 l28 -27 0 -690 0 -690 -28 -27
-27 -28 -1010 0 -1010 0 -27 28 -28 27 0 689 c0 675 0 689 20 711 11 12 29 26
40 31 11 4 469 7 1017 6 l998 -2 27 -28z"/>
<path d="M3041 4246 c-47 -26 -63 -84 -37 -135 24 -46 51 -51 254 -51 209 0
222 4 248 66 12 29 12 39 0 68 -26 63 -39 66 -251 66 -138 -1 -196 -4 -214
-14z"/>
<path d="M3803 4236 c-38 -17 -53 -43 -53 -91 0 -56 14 -72 104 -114 143 -69
194 -152 205 -332 6 -101 8 -110 34 -136 40 -41 99 -39 138 5 28 31 29 36 29
135 0 60 -6 127 -15 162 -38 144 -144 274 -275 338 -91 45 -125 51 -167 33z"/>
<path d="M4089 3271 l-29 -29 0 -202 0 -202 29 -29 c23 -23 38 -29 71 -29 33
0 48 6 71 29 l29 29 0 202 0 202 -29 29 c-23 23 -38 29 -71 29 -33 0 -48 -6
-71 -29z"/>
<path d="M889 2311 l-29 -29 0 -202 0 -202 29 -29 c23 -23 38 -29 71 -29 33 0
48 6 71 29 l29 29 0 202 0 202 -29 29 c-23 23 -38 29 -71 29 -33 0 -48 -6 -71
-29z"/>
<path d="M2767 2320 c-76 -29 -132 -82 -169 -158 l-33 -67 -3 -665 c-3 -706 0
-762 43 -835 33 -57 92 -110 150 -137 50 -23 54 -23 518 -26 l467 -3 0 -109 0
-110 -120 0 c-131 0 -164 -9 -186 -51 -31 -60 -9 -119 52 -145 49 -20 659 -20
708 0 61 26 83 85 52 145 -22 42 -55 51 -186 51 l-120 0 0 110 0 109 468 3
c463 3 467 3 517 26 58 27 117 80 150 137 43 73 46 129 43 835 l-3 665 -33 67
c-38 78 -94 129 -172 159 -48 18 -87 19 -1073 19 -975 -1 -1024 -2 -1070 -20z
m2078 -194 c67 -29 65 -1 65 -747 l0 -671 -34 -34 -34 -34 -1002 0 -1002 0
-34 34 -34 34 0 671 c0 743 -2 718 63 746 48 21 1962 22 2012 1z"/>
<path d="M924 1581 c-12 -5 -31 -22 -43 -37 -18 -23 -21 -40 -21 -128 0 -116
17 -194 60 -275 63 -117 164 -205 289 -251 47 -18 62 -20 93 -11 46 14 68 44
68 94 0 58 -13 73 -104 116 -143 69 -194 152 -205 332 -5 98 -8 111 -31 134
-28 28 -74 39 -106 26z"/>
<path d="M1642 1035 c-35 -30 -45 -69 -27 -111 25 -60 40 -64 247 -64 203 0
230 5 254 51 27 52 8 115 -41 137 -17 8 -90 12 -215 12 -186 0 -189 0 -218
-25z"/>
</g>
</svg>
