<?xml version="1.0" standalone="no"?>
<!DOCTYPE svg PUBLIC "-//W3C//DTD SVG 20010904//EN"
 "http://www.w3.org/TR/2001/REC-SVG-20010904/DTD/svg10.dtd">
<svg version="1.0" xmlns="http://www.w3.org/2000/svg"
 width="512.000000pt" height="512.000000pt" viewBox="0 0 512.000000 512.000000"
 preserveAspectRatio="xMidYMid meet">

<g transform="translate(0.000000,512.000000) scale(0.100000,-0.100000)"
fill="#000000" stroke="none">
<path d="M3278 5111 c-60 -12 -129 -61 -163 -115 l-30 -49 -5 -341 -5 -341
-170 -5 c-186 -6 -204 -11 -266 -72 -18 -18 -42 -53 -53 -78 -21 -44 -21 -59
-24 -758 l-3 -712 -172 2 -172 3 -5 530 -5 530 -27 47 c-85 143 -339 258 -693
313 -138 22 -462 30 -607 16 -256 -25 -457 -75 -613 -151 -117 -57 -189 -117
-230 -191 l-30 -54 0 -1100 0 -1100 22 -40 c61 -112 209 -198 449 -259 593
-150 1446 -52 1667 193 65 72 62 41 67 591 l5 505 172 3 172 2 3 -712 c3 -699
3 -714 24 -758 11 -25 35 -60 53 -78 62 -61 80 -66 266 -72 l170 -5 5 -340 5
-340 28 -48 c34 -58 98 -102 171 -117 36 -7 306 -10 847 -8 l794 3 50 27 c59
31 84 57 116 118 l24 45 0 395 c0 309 -3 403 -14 434 -19 54 -77 115 -136 142
-50 24 -53 24 -432 24 -382 0 -382 0 -408 23 -20 17 -28 36 -34 83 -15 106
-63 173 -151 213 -42 19 -65 21 -355 21 -304 0 -311 -1 -360 -24 -55 -25 -110
-81 -131 -132 -10 -24 -14 -80 -14 -194 l0 -160 -141 0 c-141 0 -171 6 -196
39 -9 12 -12 182 -13 719 l0 702 175 0 175 0 0 -245 c0 -275 3 -291 68 -359
77 -81 14 -76 948 -76 l832 0 53 28 c66 34 113 98 129 176 7 37 10 176 8 418
-3 343 -4 365 -24 408 -23 51 -71 102 -118 128 -27 15 -77 18 -426 22 -217 3
-403 9 -413 14 -25 12 -47 58 -47 98 0 48 -41 128 -85 167 -69 60 -74 61 -420
61 -352 0 -359 -1 -429 -68 -72 -69 -76 -85 -76 -364 l0 -248 -175 0 -175 0 0
703 c1 536 4 706 13 718 25 33 55 39 196 39 l141 0 0 -160 c0 -114 4 -170 14
-194 21 -51 76 -107 131 -132 l50 -24 814 0 c600 0 824 3 853 12 57 17 133 88
155 146 16 43 18 84 18 442 l0 395 -30 54 c-16 29 -43 64 -60 77 -70 53 -77
54 -467 54 -221 0 -378 4 -400 11 -42 11 -68 48 -68 95 0 51 -24 106 -67 154
-74 82 -85 84 -418 87 -159 1 -307 -2 -327 -6z m620 -181 c22 -21 27 -34 36
-102 10 -78 63 -150 140 -191 40 -21 55 -22 439 -27 l399 -5 19 -24 c18 -22
19 -44 19 -400 -1 -396 -1 -395 -47 -419 -16 -9 -231 -12 -813 -12 l-792 0
-29 29 -29 29 0 547 0 546 25 24 24 25 294 0 c281 0 294 -1 315 -20z m-2439
-1025 c257 -37 452 -108 546 -198 49 -47 56 -76 31 -126 -49 -94 -312 -197
-605 -237 -141 -19 -465 -21 -606 -5 -223 27 -445 92 -561 166 -145 93 -121
188 70 280 141 68 314 111 541 134 122 13 457 5 584 -14z m-1201 -578 c130
-67 309 -116 547 -149 116 -16 492 -16 615 1 214 28 420 85 545 150 39 20 73
37 78 39 11 6 9 -476 -3 -498 -41 -76 -288 -166 -565 -206 -169 -25 -564 -25
-730 0 -215 31 -375 77 -482 138 -95 53 -93 45 -93 325 0 135 3 243 8 241 4
-2 40 -20 80 -41z m3643 -196 c21 -21 29 -39 29 -63 0 -59 30 -129 75 -173 72
-73 87 -75 507 -75 377 0 397 -2 425 -39 9 -12 12 -113 13 -394 l0 -378 -25
-24 -24 -25 -795 0 c-561 0 -802 3 -819 11 -14 6 -30 22 -36 36 -8 16 -11 189
-11 562 l0 538 26 27 27 26 289 0 290 0 29 -29z m-3541 -545 c114 -38 250 -68
400 -88 146 -20 586 -16 735 5 212 31 366 73 488 133 l67 33 0 -239 0 -238
-37 -33 c-197 -172 -848 -250 -1363 -163 -193 33 -368 97 -443 164 l-37 32 0
239 0 240 43 -25 c23 -14 89 -41 147 -60z m-83 -651 c97 -42 264 -87 425 -112
164 -26 654 -26 818 1 163 25 326 69 423 111 45 20 88 39 95 42 9 4 12 -46 12
-230 l0 -235 -45 -40 c-79 -69 -262 -132 -497 -169 -90 -14 -172 -18 -408 -18
-263 0 -309 3 -422 23 -233 42 -411 106 -477 173 l-31 31 0 235 c0 184 3 234
13 230 6 -3 49 -22 94 -42z m3619 -588 c21 -19 29 -37 36 -87 14 -104 68 -176
161 -215 30 -13 98 -15 416 -15 l379 0 31 -26 31 -26 0 -379 0 -380 -25 -24
-24 -25 -806 0 -806 0 -24 25 -25 24 0 546 0 547 29 29 29 29 286 0 c284 0
285 0 312 -23z"/>
<path d="M3442 4407 c-30 -32 -29 -81 3 -112 13 -14 33 -25 44 -25 77 0 118
84 66 135 -32 33 -83 34 -113 2z"/>
<path d="M3445 4065 c-16 -15 -25 -36 -25 -55 0 -19 9 -40 25 -55 15 -16 36
-25 55 -25 19 0 40 9 55 25 16 15 25 36 25 55 0 19 -9 40 -25 55 -15 16 -36
25 -55 25 -19 0 -40 -9 -55 -25z"/>
<path d="M393 3060 c-45 -18 -58 -95 -23 -130 25 -25 80 -26 109 -2 11 9 24
31 27 49 5 27 1 37 -24 63 -31 31 -51 35 -89 20z"/>
<path d="M3445 2615 c-50 -49 -15 -135 55 -135 41 0 80 39 80 80 0 19 -9 40
-25 55 -15 16 -36 25 -55 25 -19 0 -40 -9 -55 -25z"/>
<path d="M3445 2275 c-50 -49 -15 -135 55 -135 41 0 80 39 80 80 0 41 -39 80
-80 80 -19 0 -40 -9 -55 -25z"/>
<path d="M370 2360 c-25 -25 -26 -80 -1 -111 13 -17 29 -23 56 -23 73 0 108
81 58 136 -23 25 -87 24 -113 -2z"/>
<path d="M372 1677 c-32 -34 -30 -89 4 -116 37 -29 70 -26 105 8 33 33 35 50
14 90 -24 48 -87 57 -123 18z"/>
<path d="M3445 825 c-52 -51 -18 -135 54 -135 37 0 81 38 81 69 0 77 -84 118
-135 66z"/>
<path d="M3465 498 c-77 -42 -51 -148 37 -148 28 0 42 7 57 26 29 37 26 70 -8
105 -31 31 -53 35 -86 17z"/>
</g>
</svg>
