<?xml version="1.0" standalone="no"?>
<!DOCTYPE svg PUBLIC "-//W3C//DTD SVG 20010904//EN"
 "http://www.w3.org/TR/2001/REC-SVG-20010904/DTD/svg10.dtd">
<svg version="1.0" xmlns="http://www.w3.org/2000/svg"
 width="512.000000pt" height="512.000000pt" viewBox="0 0 512.000000 512.000000"
 preserveAspectRatio="xMidYMid meet">

<g transform="translate(0.000000,512.000000) scale(0.100000,-0.100000)"
fill="#000000" stroke="none">
<path d="M2416 4344 c-218 -43 -411 -148 -563 -307 -162 -170 -254 -356 -289
-587 -18 -122 -18 -178 2 -308 l15 -105 -740 -741 c-696 -697 -741 -743 -741
-776 0 -19 -5 -134 -10 -255 -5 -121 -10 -276 -11 -344 -3 -174 -17 -166 261
-157 118 3 285 9 370 12 l155 7 85 83 85 83 -3 108 c-1 59 -5 134 -8 166 l-6
57 169 -6 169 -7 22 28 c21 27 22 35 17 159 -3 72 -8 144 -10 160 l-5 28 166
-7 166 -8 319 319 318 318 83 -14 c70 -12 264 -16 345 -7 17 2 115 -121 551
-688 408 -532 538 -695 568 -712 46 -27 127 -31 177 -9 36 16 863 648 916 700
22 22 38 52 47 85 26 101 41 78 -540 836 -291 380 -541 703 -555 719 -37 41
-94 63 -183 71 l-78 7 0 73 c0 281 -145 586 -372 782 -196 168 -433 254 -700
252 -67 0 -154 -7 -192 -15z m448 -169 c252 -74 451 -239 565 -468 60 -119 88
-222 97 -354 l7 -95 -29 5 c-16 4 -80 9 -142 13 -62 4 -114 10 -116 13 -3 4 2
33 10 66 60 257 -95 513 -351 580 -166 43 -337 -5 -461 -129 -189 -189 -188
-488 2 -679 94 -95 268 -161 372 -142 30 6 32 4 27 -17 -7 -33 -105 -564 -105
-571 0 -13 -236 -6 -305 9 -38 8 -83 17 -98 21 -27 5 -51 -17 -355 -320 l-327
-326 -184 10 c-176 10 -186 9 -210 -9 l-26 -20 3 -171 3 -172 -63 5 c-219 18
-254 17 -283 -6 l-28 -22 7 -195 7 -196 -38 -36 -38 -37 -285 -10 c-157 -6
-286 -9 -288 -7 -2 1 2 131 8 286 l11 284 739 740 c407 407 743 751 748 765 6
16 3 51 -11 110 -29 128 -26 296 7 423 90 346 356 598 712 672 109 23 306 13
418 -20z m71 -414 c131 -65 205 -214 176 -352 -14 -62 -50 -139 -65 -139 -6 1
-57 61 -114 135 -70 92 -111 137 -128 141 -57 14 -108 -41 -88 -95 6 -15 54
-84 107 -153 54 -69 97 -129 97 -132 0 -11 -78 -26 -137 -26 -291 0 -437 354
-230 560 104 104 247 127 382 61z m600 -652 c149 -11 275 -24 281 -27 7 -4
251 -319 543 -700 347 -452 531 -700 531 -715 0 -19 -85 -88 -436 -358 -239
-184 -445 -335 -458 -337 -13 -2 -30 6 -42 20 -12 13 -252 324 -534 693 -282
369 -517 675 -521 681 -5 6 16 145 51 332 33 177 60 324 60 327 0 18 25 -3 61
-50 38 -51 42 -61 43 -118 1 -47 6 -70 23 -93 62 -86 190 -83 251 7 20 29 23
43 20 93 -4 54 -8 62 -45 97 -29 27 -53 39 -85 44 -39 6 -50 13 -82 56 -59 80
-59 82 10 75 32 -3 181 -15 329 -27z"/>
<path d="M3462 2737 c-16 -16 -22 -36 -22 -66 0 -35 -3 -42 -16 -37 -44 17
-66 17 -90 2 -54 -36 -51 -102 8 -132 18 -9 35 -18 37 -20 2 -2 -10 -17 -28
-33 -81 -76 9 -176 100 -111 31 22 39 17 39 -20 0 -36 38 -70 78 -70 46 0 72
30 72 84 l0 43 39 -10 c50 -13 87 1 102 40 14 37 -5 80 -45 100 -17 8 -32 17
-34 18 -2 1 11 16 28 33 75 75 -13 174 -100 112 -31 -22 -40 -18 -40 17 0 33
-43 73 -78 73 -17 0 -37 -9 -50 -23z"/>
<path d="M3813 2284 c-21 -21 -25 -32 -20 -66 5 -39 5 -40 -21 -32 -47 14 -85
8 -104 -16 -34 -42 -20 -99 32 -120 16 -7 30 -15 30 -17 0 -3 -13 -21 -30 -40
-38 -42 -38 -67 -1 -104 35 -34 44 -35 94 -9 46 25 47 25 47 -4 0 -38 41 -79
78 -79 49 0 72 27 72 84 0 48 0 48 26 39 45 -18 81 -12 103 16 37 47 22 96
-36 121 l-36 14 32 33 c38 39 41 83 8 114 -29 27 -67 28 -100 2 -33 -26 -35
-26 -43 15 -7 40 -45 75 -81 75 -13 0 -36 -12 -50 -26z"/>
<path d="M4173 1836 c-22 -19 -27 -31 -26 -65 2 -45 2 -45 -43 -32 -100 29
-146 -92 -52 -140 l41 -21 -31 -25 c-43 -33 -45 -91 -6 -122 33 -26 50 -26 92
-1 18 11 34 20 37 20 2 0 7 -15 11 -34 7 -40 27 -62 66 -71 22 -6 33 -1 59 24
27 28 30 36 24 70 l-6 39 40 -11 c53 -14 92 -1 105 36 15 41 -3 79 -48 101
l-38 19 30 23 c37 30 47 65 28 103 -24 46 -73 55 -116 21 -32 -25 -40 -25 -40
0 0 32 -21 67 -47 79 -35 16 -49 14 -80 -13z"/>
</g>
</svg>
